PathFileType	4	(X/Y/Z)	/Users/niels/Desktop/University/Third Semester/Perception and Action/Exam/Gymnastics Motion Tracking/Code for Gym Tracking/Analyzed Data/Backflip/id2_2_pure_Sports2D/id2_2_pure_Sports2D_px_person00.trc
DataRate	CameraRate	NumFrames	NumMarkers	Units	OrigDataRate	OrigDataStartFrame	OrigNumFrames
59.925093632958806	59.925093632958806	10	22	m	59.925093632958806	180	241
Frame#	Time	Hip			RHip			RKnee			RAnkle			RBigToe			RSmallToe			RHeel			LHip			LKnee			LAnkle			LBigToe			LSmallToe			LHeel			Neck			Head			Nose			RShoulder			RElbow			RWrist			LShoulder			LElbow			LWrist		
		X1	Y1	Z1	X2	Y2	Z2	X3	Y3	Z3	X4	Y4	Z4	X5	Y5	Z5	X6	Y6	Z6	X7	Y7	Z7	X8	Y8	Z8	X9	Y9	Z9	X10	Y10	Z10	X11	Y11	Z11	X12	Y12	Z12	X13	Y13	Z13	X14	Y14	Z14	X15	Y15	Z15	X16	Y16	Z16	X17	Y17	Z17	X18	Y18	Z18	X19	Y19	Z19	X20	Y20	Z20	X21	Y21	Z21	X22	Y22	Z22
180	3.00375	1.0098266372780127	-0.40233868203079864	0.0	1.0090820510399061	-0.40442352360371514	0.0	1.078585467735383	-0.34793104169751443	0.0	1.1253485469815259	-0.4195508055788453	0.0	1.1593396215323115	-0.4225220817046831	0.0	1.15748970954898	-0.4296261366354514	0.0	1.1271731476851679	-0.43521695854690934	0.0	1.015516232425813	-0.3972343877977337	0.0	1.0797722122292834	-0.34717448756595043	0.0	1.1269970530118394	-0.41520020004322	0.0	1.163747738600436	-0.4199099546182252	0.0	1.1597885727857489	-0.4207105775023795	0.0	1.1242148904748515	-0.43382218202712	0.0	0.9260269093607129	-0.31074784580397435	0.0	0.9201604844513996	-0.24660618346263644	0.0	0.9471180791804639	-0.2767453075405545	0.0	0.9211420341165314	-0.3153431466184667	0.0	0.9398902402262572	-0.2599664996078921	0.0	0.9438393180389546	-0.20321259339725253	0.0	0.9370931451825528	-0.31472936366837007	0.0	0.9520294353193804	-0.2694629293873915	0.0	0.9546497506754275	-0.2210933614601471	0.0
181	3.0204375000000003	1.012068627417531	-0.3965990802828859	0.0	1.0114020319881565	-0.39844802599485046	0.0	1.0701585670906633	-0.3294702767792581	0.0	1.1265163553213506	-0.39111175918038454	0.0	1.1602056758619508	-0.38709744051777356	0.0	1.1596721346374492	-0.3947941865653093	0.0	1.1304211210111907	-0.4062172272654309	0.0	1.0174074414981396	-0.39092677656246483	0.0	1.0714607285064601	-0.329186691188392	0.0	1.1277159365044438	-0.38702672025890544	0.0	1.1649791099276225	-0.3846309083507537	0.0	1.161334659946557	-0.38584902138222577	0.0	1.1279031411722904	-0.40480404185100644	0.0	0.9245147051974236	-0.31095813294280594	0.0	0.9146662329906295	-0.24909908687509702	0.0	0.943307360556366	-0.27641497228012313	0.0	0.920780666662162	-0.3153500532198442	0.0	0.9444690381906123	-0.26220262320704396	0.0	0.9498545049773113	-0.20622166358792388	0.0	0.9354363718997392	-0.31509055875754405	0.0	0.9554569027885271	-0.27118752361190185	0.0	0.9601769106796048	-0.2231292582270653	0.0
182	3.037125	1.0149774231949016	-0.39060007842266165	0.0	1.01446462006872	-0.3921404830557456	0.0	1.060232775999714	-0.31314005633506287	0.0	1.1248447125276395	-0.3636278781188497	0.0	1.1571720096956433	-0.35271665695509313	0.0	1.1579688194444626	-0.3608667327331836	0.0	1.1306956376042374	-0.3778137715784041	0.0	1.0198109906774846	-0.38454138144801686	0.0	1.061627842632039	-0.3134773070130086	0.0	1.1255554213687435	-0.35989112854118455	0.0	1.1623285105273131	-0.35043334354851197	0.0	1.1590975928676135	-0.3520378612593021	0.0	1.1287756960234798	-0.3763810460292071	0.0	0.9235467620811761	-0.3125151660060766	0.0	0.9087545420128729	-0.253838011103359	0.0	0.9390710939287276	-0.27759714933702345	0.0	0.9211083158084108	-0.3165376669480823	0.0	0.9493962155244979	-0.2653511448229881	0.0	0.9554759599366442	-0.21052149093327557	0.0	0.9341417100594586	-0.3168066802539634	0.0	0.9588065582215125	-0.27374817914136773	0.0	0.9650030491294767	-0.22606219957914167	0.0
183	3.0538125000000003	1.0184086303718762	-0.3841180256337583	0.0	1.0181304872471084	-0.3853171386339811	0.0	1.0491643807794566	-0.29925191577395605	0.0	1.1203250161017875	-0.33763309383516016	0.0	1.1501982239462423	-0.3201397074172108	0.0	1.1522985452156074	-0.328620894398075	0.0	1.1278817260369387	-0.35053344065922687	0.0	1.0225990602843709	-0.3778680994192363	0.0	1.0506435602734803	-0.30027754256784245	0.0	1.1205047836147404	-0.3342766703547656	0.0	1.155702696779888	-0.31804224961169925	0.0	1.152974537216293	-0.32000109456522413	0.0	1.1266880211406543	-0.349065868805442	0.0	0.9231426609342444	-0.315387086464481	0.0	0.902737397023588	-0.26089613212926166	0.0	0.9345423381967825	-0.28043282576867345	0.0	0.9221361618809061	-0.31885754837421526	0.0	0.954482939129328	-0.26918996689009267	0.0	0.960437823380528	-0.21592723249284354	0.0	0.9332739491697822	-0.3197863733727351	0.0	0.9619412028444844	-0.2769930539507559	0.0	0.9688888923800375	-0.22984522931404192	0.0
184	3.0705	1.0221720074513254	-0.37698986389184813	0.0	1.0222106280354324	-0.377835115879955	0.0	1.0373362104624428	-0.2880254896684187	0.0	1.1130634129018888	-0.31364394936998286	0.0	1.1394041118143072	-0.2900883569761666	0.0	1.1427455638963484	-0.2988177021685416	0.0	1.12198737272955	-0.32489559789686356	0.0	1.0255948566312434	-0.37074015594732146	0.0	1.0389016122666361	-0.289721479928836	0.0	1.1126541462004444	-0.31064989722678404	0.0	1.1451409180736203	-0.288151373428773	0.0	1.1429842772902359	-0.29043227698756896	0.0	1.121583321025135	-0.3233659840054829	0.0	0.9233502995883065	-0.3195197393509596	0.0	0.897031943428191	-0.27028920522536937	0.0	0.9299245917142908	-0.2850325154723483	0.0	0.9238711609071384	-0.3222441225573519	0.0	0.9595571501271388	-0.273481338362744	0.0	0.9645165850599441	-0.22224807928916399	0.0	0.9329438604213193	-0.3239183646157119	0.0	0.9647659159151863	-0.28078239616271294	0.0	0.971667942292539	-0.23444701081200886	0.0
185	3.0871875	1.0260396157312819	-0.3691354200396444	0.0	1.026467180534765	-0.3696124789204504	0.0	1.0251236154037382	-0.27957549648825464	0.0	1.1032659350589398	-0.2921367888129253	0.0	1.125052666866449	-0.2632275376820989	0.0	1.1295507968449447	-0.2721724765194556	0.0	1.1131349481859205	-0.30138359333311265	0.0	1.028584492915382	-0.3630582754288008	0.0	1.0267874612018166	-0.2818350083351675	0.0	1.1021858722106443	-0.2894359497436845	0.0	1.1308381263867588	-0.26139495579563105	0.0	1.1292949016559666	-0.26395910387913446	0.0	1.1134900536083256	-0.29975414904583686	0.0	0.9242559357087163	-0.3248340425511975	0.0	0.8921295706482105	-0.2819578985103768	0.0	0.9254846421694751	-0.29146116229352437	0.0	0.9263197848838902	-0.3266149969292034	0.0	0.9644699080159785	-0.27800426649658433	0.0	0.9675459558212399	-0.22929859900044192	0.0	0.933306193619204	-0.32907232264122405	0.0	0.967221756967858	-0.28498782562819497	0.0	0.9732588072377905	-0.2398273578950014	0.0
186	3.1038750000000004	1.0297602731027493	-0.36056116793093657	0.0	1.030616999872043	-0.3606442802897359	0.0	1.012861629593111	-0.27392044426341244	0.0	1.091221028579561	-0.2735256685702598	0.0	1.107518322078467	-0.24014400000211233	0.0	1.1130803461644232	-0.2493180009230258	0.0	1.1015482223484483	-0.28042191504909575	0.0	1.0313389297618791	-0.35480450241166916	0.0	1.014645405011388	-0.27654724176767237	0.0	1.0893632487100806	-0.2709914732724991	0.0	1.113143634357685	-0.2383175286161297	0.0	1.112223050357859	-0.2411138892070851	0.0	1.1025304128124327	-0.278649235202338	0.0	0.9259793689641221	-0.33121405592478925	0.0	0.8885547316025738	-0.29575321710606883	0.0	0.9215506098273495	-0.2997231403753949	0.0	0.9294938567922462	-0.3318650286144267	0.0	0.9690898625401182	-0.2825756607170856	0.0	0.9694287170129665	-0.23690155733934165	0.0	0.9345436088236919	-0.3350914031915159	0.0	0.969277633012147	-0.2894759435228113	0.0	0.9736611207108334	-0.24592281636525928	0.0
187	3.1205625	1.033080642306167	-0.3513561669180649	0.0	1.0343499044780424	-0.3510159828504303	0.0	1.000824750529284	-0.27099814589332527	0.0	1.0772755397879026	-0.25814182379263784	0.0	1.0872562013571507	-0.2213322694524353	0.0	1.0937859011042435	-0.2307721137156411	0.0	1.0875315346932715	-0.2623576501576536	0.0	1.0336396861655044	-0.3460459489095358	0.0	1.0027634732894646	-0.2737222096156336	0.0	1.0745135035122668	-0.2555812268915333	0.0	1.092521397744051	-0.21936300428959876	0.0	1.092200206393621	-0.22232373189509283	0.0	1.0889286249646632	-0.26039394290014684	0.0	0.9286603719978791	-0.33849839079621824	0.0	0.8868263901280012	-0.3114181249186047	0.0	0.9185117302750988	-0.30974634330179474	0.0	0.9334216086847246	-0.33785833512955926	0.0	0.9733019404442197	-0.28705267628828396	0.0	0.9701443673257384	-0.244891236212646	0.0	0.93684256158808	-0.3417902686865525	0.0	0.970926151466653	-0.29408404429841944	0.0	0.9729435724065167	-0.2526457314233784	0.0
188	3.1372500000000003	1.035765466016595	-0.3416967904765101	0.0	1.0373600650876875	-0.34091739268865484	0.0	0.9892262691269698	-0.27068067933214074	0.0	1.0618052635904498	-0.2462249117188753	0.0	1.0647809862914623	-0.2071899118289968	0.0	1.0721738000094836	-0.2169180057875002	0.0	1.0714435566841836	-0.24745429802726704	0.0	1.0352948446175065	-0.33693539453152044	0.0	0.9913800612038278	-0.273198366271252	0.0	1.0580058811734214	-0.24337420644529517	0.0	1.0695039641741872	-0.20489085680879152	0.0	1.0697369310791534	-0.207924113294009	0.0	1.0730019779847366	-0.24524237765403115	0.0	0.9324424067054004	-0.34648048957464767	0.0	0.8874225170583822	-0.328569016017657	0.0	0.9167992106275852	-0.3213656717536435	0.0	0.9381531719431365	-0.3444190521106125	0.0	0.9770153903211647	-0.29132230001950316	0.0	0.9697455035773739	-0.2531234387296291	0.0	0.9403670430186496	-0.34896083616633505	0.0	0.9721859151898882	-0.29861897703117524	0.0	0.9712345075578769	-0.2598934079021666	0.0
189	3.1539375	1.0376135217895448	-0.3318533333963748	0.0	1.0393784822515608	-0.33064959761612833	0.0	0.9782347905692362	-0.27278575209253686	0.0	1.045184506451723	-0.23793071636358443	0.0	1.04065509701587	-0.1980143089545779	0.0	1.0487858783759056	-0.2080016288678834	0.0	1.0536733147804016	-0.23590595064007994	0.0	1.0361489592482251	-0.3277050872765078	0.0	0.9806912484726831	-0.27481115586121063	0.0	1.0402267758976838	-0.23446401344354995	0.0	1.0446734345204467	-0.19519325018179723	0.0	1.0454046737901133	-0.19817627812485322	0.0	1.055139126501108	-0.23337957821726144	0.0	0.937456380314031	-0.35491147946395823	0.0	0.8907356073925475	-0.3466952286473838	0.0	0.9168395700356722	-0.33431166890545294	0.0	0.9437474190717612	-0.35132851604906407	0.0	0.9801663039023633	-0.2953013259915043	0.0	0.9683441511624274	-0.2614928302772726	0.0	0.9452386335949768	-0.3563690952923642	0.0	0.9731054593907597	-0.30289311401595287	0.0	0.9687150071222558	-0.26756412195466694	0.0
